<svg xmlns="http://www.w3.org/2000/svg" style="display: none;">
  <symbol id="icon-strategy" viewBox="0 0 64 64">
    <path d="M32 6C17.64 6 6 17.64 6 32s11.64 26 26 26 26-11.64 26-26S46.36 6 32 6zM30 16h4v14h-4V16zm2 34c-2.21 0-4-1.79-4-4s1.79-4 4-4 4 1.79 4 4-1.79 4-4 4z"></path>
  </symbol>
  <symbol id="icon-punctuality" viewBox="0 0 64 64">
    <path d="M32 4C17.65 4 6 15.65 6 30s11.65 26 26 26 26-11.65 26-26S46.35 4 32 4zm1 36h-4V28h4v12zm0-16h-4v-4h4v4z"></path>
  </symbol>
  <symbol id="icon-diligence" viewBox="0 0 64 64">
    <path d="M29 2C15.43 2 4 13.43 4 27s11.43 25 25 25c5.18 0 9.94-1.62 13.79-4.39L56.1 59.7c1.17 1.17 3.07 1.17 4.24 0 1.17-1.17 1.17-3.07 0-4.24L47.24 47.06C50.98 43.15 53 37.27 53 31c0-13.57-11.43-25-25-25zm0 46c-11.59 0-21-9.41-21-21s9.41-21 21-21 21 9.41 21 21-9.41 21-21 21z"></path>
  </symbol>
  <symbol id="icon-technologies" viewBox="0 0 64 64">
    <path d="M48 0H16C7.16 0 0 7.16 0 16v32c0 8.84 7.16 16 16 16h32c8.84 0 16-7.16 16-16V16c0-8.84-7.16-16-16-16zM32 56c-13.25 0-24-10.75-24-24S18.75 8 32 8s24 10.75 24 24-10.75 24-24 24zm0-40c-8.82 0-16 7.18-16 16s7.18 16 16 16 16-7.18 16-16-7.18-16-16-16z"></path>
  </symbol>
</svg>
